<svg width="91" height="97" viewBox="0 0 91 97" fill="none" xmlns="http://www.w3.org/2000/svg">
<path d="M45.5054 73.8109C40.0605 66.9793 36.857 60.9861 35.7874 55.8584C34.7285 51.725 35.1424 48.414 36.9591 45.9254C38.878 43.0659 41.7429 41.6738 45.5 41.6738C49.2571 41.6738 52.1166 43.0659 54.0409 45.9523C55.8415 48.414 56.293 51.7304 55.1965 55.8853C54.0247 61.1205 50.8266 67.1029 45.4785 73.8431L45.5054 73.8109ZM84.1839 78.4065C83.4314 83.4268 80.0183 87.587 75.3151 89.6134C66.2475 93.5586 57.2605 87.2645 49.5743 78.7236C62.2861 62.8083 64.6404 50.4081 59.1794 42.3994C55.9759 37.8038 51.391 35.5678 45.5054 35.5678C33.6481 35.5678 27.1282 45.6029 29.6921 57.2505C31.1756 63.5554 35.137 70.7203 41.4419 78.729C37.4912 83.0989 33.7449 86.2056 30.4392 88.1245C27.87 89.5113 25.419 90.3713 23.0755 90.5755C12.2825 92.1826 3.82225 81.7229 7.66537 70.9245C8.20287 69.5324 9.26175 66.9793 11.0731 63.0179L11.1752 62.8083C17.0716 50.005 24.2365 35.4603 32.4656 19.3245L32.6752 18.787L35.0134 14.2935C36.8301 10.9825 37.5772 9.49901 40.4636 7.67688C41.8504 6.83301 43.5596 6.41376 45.4839 6.41376C49.327 6.41376 52.3155 8.66051 53.6055 10.4611C54.2398 11.4286 54.9976 12.7133 55.949 14.3096L58.2011 18.6903L58.5236 19.3299C66.7474 35.4603 73.9123 49.9781 79.7818 62.8083L79.8893 62.9104L82.0446 67.8285L83.3185 70.9084C84.3021 73.3755 84.5064 75.8265 84.1785 78.3958L84.1839 78.4065ZM89.0912 68.7799C88.3441 66.4256 87.0595 63.6575 85.4631 60.3465V60.2283C78.5905 45.5441 71.4658 30.9793 64.0921 16.5403L63.6406 15.8899C58.8622 6.08588 55.4384 0.200256 45.5 0.200256C35.6799 0.200256 31.5035 7.02651 27.2411 15.906L26.9132 16.5456C20.1891 29.5854 13.1317 44.1086 5.54762 60.2444V60.454L3.30087 65.3668C2.45162 67.3985 2.027 68.4574 1.90875 68.7853C-3.53075 83.7385 7.6815 96.875 21.2534 96.875C21.3662 96.875 21.7855 96.875 22.3176 96.7621H23.8119C30.8692 95.9075 38.1309 91.4248 45.5 83.4053C52.8691 91.414 60.1469 95.9075 67.1774 96.7621H68.677C69.2145 96.875 69.6445 96.875 69.752 96.875C83.3239 96.8858 94.5307 83.7385 89.0912 68.7799Z" fill="#0FA958"/>
</svg>
