<svg width="23" height="27" viewBox="0 0 23 27" fill="none" xmlns="http://www.w3.org/2000/svg">
<path d="M22.5165 18.6415C22.4171 18.5209 22.3196 18.4004 22.2238 18.2841C20.9072 16.6803 20.1107 15.7124 20.1107 11.1725C20.1107 8.82201 19.5523 6.89344 18.4518 5.44701C17.6403 4.37846 16.5433 3.56786 15.0975 2.96879C15.0788 2.95837 15.0622 2.9447 15.0484 2.92842C14.5283 1.17462 13.1052 0 11.5001 0C9.8951 0 8.47257 1.17462 7.95252 2.92661C7.93864 2.94229 7.92225 2.95553 7.90404 2.96578C4.52996 4.3646 2.8902 7.04833 2.8902 11.1706C2.8902 15.7124 2.09485 16.6803 0.777058 18.2823C0.681306 18.3986 0.583758 18.5167 0.484414 18.6396C0.227798 18.9513 0.0652103 19.3305 0.0158932 19.7323C-0.0334239 20.1341 0.0325937 20.5417 0.206133 20.9069C0.575379 21.6904 1.36235 22.1768 2.26062 22.1768H20.7463C21.6403 22.1768 22.4219 21.691 22.7924 20.9111C22.9667 20.5458 23.0333 20.1379 22.9844 19.7356C22.9355 19.3333 22.7731 18.9536 22.5165 18.6415ZM11.5001 27C12.3649 26.9993 13.2134 26.7629 13.9556 26.3159C14.6978 25.8688 15.3059 25.2279 15.7157 24.4609C15.735 24.4242 15.7445 24.383 15.7433 24.3414C15.7422 24.2999 15.7304 24.2593 15.709 24.2237C15.6877 24.1881 15.6576 24.1587 15.6216 24.1382C15.5857 24.1178 15.5451 24.1071 15.5038 24.1071H7.49769C7.45635 24.107 7.41568 24.1176 7.37964 24.138C7.34359 24.1584 7.31341 24.1878 7.29202 24.2235C7.27062 24.2591 7.25876 24.2997 7.25757 24.3413C7.25638 24.3829 7.26591 24.4241 7.28524 24.4609C7.6949 25.2278 8.303 25.8687 9.04506 26.3157C9.78711 26.7627 10.6355 26.9992 11.5001 27Z" fill="#0E7899"/>
</svg>
